<svg width="50" height="80" xmlns="http://www.w3.org/2000/svg">

 <g>
  <title>background</title>
  <rect fill="none" id="canvas_background" height="82" width="52" y="-1" x="-1"/>
 </g>
 <g>
  <title>Layer 1</title>
  <g id="svg_1">
   <g id="svg_2">
    <polygon id="svg_3" points="3.9730000495910645,44.5570011138916 0,0 43.6510009765625,0 39.67399978637695,44.55000114440918 21.798999786376953,49.5049991607666 " fill="#E45325"/>
    <polygon id="svg_4" points="21.826000213623047,45.71700096130371 36.27000045776367,41.71299934387207 39.667999267578125,3.6440000534057617 21.826000213623047,3.6440000534057617 " fill="#F1692D"/>
    <polygon id="svg_5" points="21.826000213623047,20.16900062561035 14.593999862670898,20.16900062561035 14.095000267028809,14.572999954223633 21.826000213623047,14.572999954223633 21.826000213623047,9.107999801635742 21.80699920654297,9.107999801635742 8.123000144958496,9.107999801635742 8.253000259399414,10.573999404907227 9.597000122070312,25.63300132751465 21.826000213623047,25.63300132751465 " fill="#EBEBEB"/>
    <polygon id="svg_6" points="21.826000213623047,34.35999870300293 21.802000045776367,34.36699867248535 15.71500015258789,32.72400093078613 15.326000213623047,28.365999221801758 12.369000434875488,28.365999221801758 9.840999603271484,28.365999221801758 10.605999946594238,36.946001052856445 21.799999237060547,40.053998947143555 21.826000213623047,40.04599952697754 " fill="#EBEBEB"/>
    <g id="svg_7"/>
    <polygon id="svg_12" points="21.80699920654297,20.16900062561035 21.80699920654297,25.63300132751465 28.535999298095703,25.63300132751465 27.9010009765625,32.71999931335449 21.80699920654297,34.364999771118164 21.80699920654297,40.05100059509277 33.0099983215332,36.946001052856445 33.09199905395508,36.023000717163086 34.375999450683594,21.63599967956543 34.50899887084961,20.16900062561035 33.0369987487793,20.16900062561035 " fill="#FFFFFF"/>
    <polygon id="svg_13" points="21.80699920654297,9.107999801635742 21.80699920654297,12.50200080871582 21.80699920654297,14.559999465942383 21.80699920654297,14.572999954223633 34.98899841308594,14.572999954223633 34.98899841308594,14.572999954223633 35.00600051879883,14.572999954223633 35.11600112915039,13.344999313354492 35.3650016784668,10.573999404907227 35.49599838256836,9.107999801635742 " fill="#FFFFFF"/>
   </g>
  </g>
 </g>
</svg>