<?xml version="1.0" encoding="utf-8"?>
<!-- Generator: Adobe Illustrator 17.0.0, SVG Export Plug-In . SVG Version: 6.00 Build 0)  -->
<!DOCTYPE svg PUBLIC "-//W3C//DTD SVG 1.1//EN" "http://www.w3.org/Graphics/SVG/1.1/DTD/svg11.dtd">
<svg version="1.1" id="Layer_1" xmlns="http://www.w3.org/2000/svg" xmlns:xlink="http://www.w3.org/1999/xlink" x="0px" y="0px"
	 width="500px" height="300px" viewBox="0 0 500 300" enable-background="new 0 0 500 300" xml:space="preserve">
<g>
	<rect x="39.204" y="114.349" fill="#3D4D54" width="59.454" height="75.426"/>
	<polygon fill="#3D4D54" points="85.618,82.849 134.903,150.598 85.618,218.347 	"/>
</g>
<path fill="#00AAC2" d="M326.429,13.545h19.122c0,8.538,0,17.044,0,25.581c34.215,0.192,68.398-0.352,102.581,0.192
	c7.291-0.735,13.015,4.924,12.343,12.215c0.544,62.994-0.128,126.02,0.32,189.015c-0.32,6.459,0.64,13.622-3.102,19.346
	c-4.669,3.326-10.712,2.91-16.148,3.166c-32.009-0.16-63.985-0.096-95.994-0.096c0,8.538,0,17.044,0,25.581h-19.985
	c-48.669-8.89-97.465-17.044-146.23-25.581c-0.032-74.602,0-149.203,0-223.773C228.357,30.621,277.409,22.275,326.429,13.545z"/>
<path fill="#FFFFFF" d="M345.551,48.72c35.174,0,70.349,0,105.523,0c0,68.206,0,136.445,0,204.651c-35.174,0-70.349,0-105.523,0
	c0-8.538,0-17.044,0-25.581c27.724,0,55.416,0,83.14,0c0-4.253,0-8.538,0-12.791c-27.724,0-55.416,0-83.14,0
	c0-5.34,0-10.648,0-15.988c27.724,0,55.416,0,83.14,0c0-4.253,0-8.538,0-12.791c-27.724,0-55.416,0-83.14,0
	c0-5.34,0-10.648,0-15.988c27.724,0,55.416,0,83.14,0c0-4.253,0-8.538,0-12.791c-27.724,0-55.416,0-83.14,0
	c0-5.34,0-10.648,0-15.988c27.724,0,55.416,0,83.14,0c0-4.253,0-8.538,0-12.791c-27.724,0-55.416,0-83.14,0
	c0-5.34,0-10.648,0-15.988c27.724,0,55.416,0,83.14,0c0-4.253,0-8.538,0-12.791c-27.724,0-55.416,0-83.14,0
	c0-5.34,0-10.648,0-15.988c27.724,0,55.416,0,83.14,0c0-4.253,0-8.538,0-12.791c-27.724,0-55.416,0-83.14,0
	C345.551,63.653,345.551,56.17,345.551,48.72z"/>
<path fill="#FFFFFF" d="M245.4,105.222c6.076-0.352,12.151-0.608,18.227-0.927c4.253,21.584,8.602,43.137,13.206,64.625
	c3.613-22.192,7.61-44.32,11.48-66.48c6.395-0.224,12.791-0.576,19.154-0.959c-7.227,30.985-13.558,62.227-21.456,93.02
	c-5.34,2.782-13.334-0.128-19.666,0.32c-4.253-21.169-9.209-42.209-13.015-63.474c-3.741,20.657-8.602,41.122-12.887,61.651
	c-6.14-0.32-12.311-0.703-18.483-1.119c-5.308-28.14-11.544-56.087-16.5-84.291c5.468-0.256,10.968-0.48,16.436-0.672
	c3.294,20.369,7.035,40.642,9.913,61.044C236.319,147.048,240.924,126.135,245.4,105.222z"/>
</svg>
